<?xml version="1.0" encoding="UTF-8"?>
<svg xmlns="http://www.w3.org/2000/svg" xmlns:xlink="http://www.w3.org/1999/xlink" width="18pt" height="18pt" viewBox="0 0 18 18" version="1.1">
<g id="surface1">
<path style=" stroke:none;fill-rule:nonzero;fill:rgb(0%,51.764706%,100%);fill-opacity:1;" d="M 18 16.59375 C 18 17.371094 17.371094 18 16.59375 18 L 1.40625 18 C 0.628906 18 0 17.371094 0 16.59375 L 0 1.40625 C 0 0.628906 0.628906 0 1.40625 0 L 16.59375 0 C 17.371094 0 18 0.628906 18 1.40625 Z M 18 16.59375 "/>
<path style=" stroke:none;fill-rule:nonzero;fill:rgb(6.27451%,12.156863%,20.392157%);fill-opacity:1;" d="M 9 2.53125 C 4.960938 2.53125 1.6875 5.113281 1.6875 8.296875 C 1.6875 10.355469 3.054688 12.164062 5.117188 13.183594 C 5.003906 13.570312 4.394531 15.667969 4.371094 15.832031 C 4.371094 15.832031 4.359375 15.957031 4.4375 16.003906 C 4.515625 16.050781 4.613281 16.015625 4.613281 16.015625 C 4.84375 15.984375 7.277344 14.269531 7.699219 13.972656 C 8.121094 14.03125 8.554688 14.0625 9 14.0625 C 13.039062 14.0625 16.3125 11.484375 16.3125 8.296875 C 16.3125 5.113281 13.039062 2.53125 9 2.53125 Z M 9 2.53125 "/>
<path style=" stroke:none;fill-rule:nonzero;fill:rgb(0%,51.764706%,100%);fill-opacity:1;" d="M 4.957031 10.308594 C 4.726562 10.308594 4.535156 10.128906 4.535156 9.90625 L 4.535156 7.398438 L 3.878906 7.398438 C 3.648438 7.398438 3.464844 7.214844 3.464844 6.988281 C 3.464844 6.757812 3.648438 6.574219 3.878906 6.574219 L 6.039062 6.574219 C 6.265625 6.574219 6.453125 6.757812 6.453125 6.988281 C 6.453125 7.214844 6.265625 7.398438 6.039062 7.398438 L 5.378906 7.398438 L 5.378906 9.90625 C 5.378906 10.128906 5.191406 10.308594 4.957031 10.308594 Z M 8.65625 10.304688 C 8.480469 10.304688 8.347656 10.234375 8.304688 10.117188 L 8.097656 9.570312 L 6.808594 9.570312 L 6.601562 10.117188 C 6.5625 10.230469 6.425781 10.304688 6.25 10.304688 C 6.15625 10.304688 6.066406 10.285156 5.984375 10.246094 C 5.867188 10.191406 5.753906 10.042969 5.882812 9.644531 L 6.890625 6.988281 C 6.964844 6.789062 7.179688 6.578125 7.453125 6.574219 C 7.730469 6.582031 7.945312 6.789062 8.015625 6.992188 L 9.023438 9.644531 C 9.152344 10.042969 9.042969 10.191406 8.925781 10.246094 C 8.839844 10.285156 8.75 10.304688 8.65625 10.304688 Z M 7.875 8.824219 L 7.453125 7.625 L 7.03125 8.824219 Z M 9.703125 10.246094 C 9.480469 10.246094 9.296875 10.074219 9.296875 9.859375 L 9.296875 6.996094 C 9.296875 6.765625 9.492188 6.574219 9.730469 6.574219 C 9.96875 6.574219 10.160156 6.765625 10.160156 6.996094 L 10.160156 9.472656 L 11.054688 9.472656 C 11.28125 9.472656 11.460938 9.648438 11.460938 9.859375 C 11.460938 10.074219 11.28125 10.246094 11.054688 10.246094 Z M 12.046875 10.304688 C 11.816406 10.304688 11.625 10.113281 11.625 9.882812 L 11.625 6.996094 C 11.625 6.765625 11.816406 6.574219 12.046875 6.574219 C 12.28125 6.574219 12.46875 6.765625 12.46875 6.996094 L 12.46875 7.902344 L 13.644531 6.726562 C 13.707031 6.664062 13.789062 6.632812 13.878906 6.632812 C 13.984375 6.632812 14.089844 6.675781 14.171875 6.757812 C 14.246094 6.832031 14.289062 6.925781 14.292969 7.023438 C 14.300781 7.121094 14.265625 7.214844 14.203125 7.28125 L 13.238281 8.242188 L 14.277344 9.617188 C 14.347656 9.707031 14.375 9.820312 14.359375 9.929688 C 14.34375 10.042969 14.285156 10.140625 14.195312 10.207031 C 14.125 10.261719 14.035156 10.292969 13.941406 10.292969 C 13.808594 10.292969 13.683594 10.230469 13.605469 10.125 L 12.617188 8.8125 L 12.46875 8.960938 L 12.46875 9.878906 C 12.46875 10.117188 12.28125 10.304688 12.046875 10.304688 Z M 12.046875 10.304688 "/>
</g>
</svg>
